# xmcd CD database file
#
# Track frame offsets:
#	150
#	14157
#	27642
#
# Disc length: 663 seconds
#
# Revision: 0
# Processed by: cddbd v1.5.1PL0 Copyright (c) Steve Scherf et al.
# Submitted via: CDex 1.51
#
DISCID=24029503
DTITLE=ストレイテナー - THE REMAINS
DYEAR=2005
DGENRE=Rock
TTITLE0=WHITE ROOM BLACK STAR
TTITLE1=THE REMAINS
TTITLE2=DISCOGRAPHY
EXTD=YEAR: 2005
EXTT0=
EXTT1=
EXTT2=
PLAYORDER=
